<mxfile host="app.diagrams.net" modified="2021-04-06T07:50:28.383Z" agent="5.0 (Macintosh; Intel Mac OS X 11_2_2) AppleWebKit/537.36 (KHTML, like Gecko) Chrome/89.0.4389.90 Safari/537.36" etag="wEVptSBr8T6t86tmctH_" version="14.5.1" type="github">
  <diagram id="usNf__BCbyZ_gfrxAnOe" name="Page-1">
    <mxGraphModel dx="2253" dy="769" grid="1" gridSize="10" guides="1" tooltips="1" connect="1" arrows="1" fold="1" page="1" pageScale="1" pageWidth="827" pageHeight="1169" math="0" shadow="0">
      <root>
        <mxCell id="0" />
        <mxCell id="1" parent="0" />
        <mxCell id="DKSVqOXuUb8XlKfZnycg-18" value="" style="rounded=0;whiteSpace=wrap;html=1;dashed=1;opacity=60;" vertex="1" parent="1">
          <mxGeometry x="-30" y="130" width="930" height="480" as="geometry" />
        </mxCell>
        <mxCell id="DKSVqOXuUb8XlKfZnycg-3" style="edgeStyle=orthogonalEdgeStyle;rounded=0;orthogonalLoop=1;jettySize=auto;html=1;entryX=0;entryY=0.5;entryDx=0;entryDy=0;" edge="1" parent="1" source="DKSVqOXuUb8XlKfZnycg-1" target="DKSVqOXuUb8XlKfZnycg-2">
          <mxGeometry relative="1" as="geometry" />
        </mxCell>
        <mxCell id="DKSVqOXuUb8XlKfZnycg-14" value="test_driver=1" style="edgeLabel;html=1;align=center;verticalAlign=middle;resizable=0;points=[];" vertex="1" connectable="0" parent="DKSVqOXuUb8XlKfZnycg-3">
          <mxGeometry x="-0.4607" y="4" relative="1" as="geometry">
            <mxPoint as="offset" />
          </mxGeometry>
        </mxCell>
        <mxCell id="DKSVqOXuUb8XlKfZnycg-1" value="司机事件(&lt;span style=&quot;background-color: rgb(255 , 255 , 255) ; color: rgb(51 , 51 , 51) ; font-family: &amp;#34;helvetica neue&amp;#34; , &amp;#34;helvetica&amp;#34; , &amp;#34;arial&amp;#34; , sans-serif ; font-size: 15px&quot;&gt;/tripcloud/v1/agent/&lt;/span&gt;driverEventDataSync&lt;span style=&quot;background-color: rgb(255 , 255 , 255) ; color: rgb(51 , 51 , 51) ; font-family: &amp;#34;helvetica neue&amp;#34; , &amp;#34;helvetica&amp;#34; , &amp;#34;arial&amp;#34; , sans-serif ; font-size: 15px&quot;&gt;)&lt;/span&gt;" style="rounded=0;whiteSpace=wrap;html=1;" vertex="1" parent="1">
          <mxGeometry x="160" y="250" width="340" height="40" as="geometry" />
        </mxCell>
        <mxCell id="DKSVqOXuUb8XlKfZnycg-2" value="DD&amp;nbsp;" style="rounded=0;whiteSpace=wrap;html=1;" vertex="1" parent="1">
          <mxGeometry x="980" y="320" width="120" height="60" as="geometry" />
        </mxCell>
        <mxCell id="DKSVqOXuUb8XlKfZnycg-8" style="edgeStyle=orthogonalEdgeStyle;rounded=0;orthogonalLoop=1;jettySize=auto;html=1;entryX=0;entryY=0.5;entryDx=0;entryDy=0;" edge="1" parent="1" source="DKSVqOXuUb8XlKfZnycg-7" target="DKSVqOXuUb8XlKfZnycg-2">
          <mxGeometry relative="1" as="geometry">
            <Array as="points">
              <mxPoint x="740" y="470" />
              <mxPoint x="740" y="350" />
            </Array>
          </mxGeometry>
        </mxCell>
        <mxCell id="DKSVqOXuUb8XlKfZnycg-9" value="&lt;span style=&quot;font-size: 12px ; background-color: rgb(248 , 249 , 250)&quot;&gt;抢单司机带标志&lt;br&gt;&lt;/span&gt;&lt;span style=&quot;font-size: 12px ; background-color: rgb(248 , 249 , 250)&quot;&gt;13005（测试单、正常司机抢单失败返回值）&lt;/span&gt;&lt;span style=&quot;font-size: 12px ; background-color: rgb(248 , 249 , 250)&quot;&gt;&lt;br&gt;&lt;/span&gt;" style="edgeLabel;html=1;align=center;verticalAlign=middle;resizable=0;points=[];" vertex="1" connectable="0" parent="DKSVqOXuUb8XlKfZnycg-8">
          <mxGeometry x="-0.2407" y="-1" relative="1" as="geometry">
            <mxPoint as="offset" />
          </mxGeometry>
        </mxCell>
        <mxCell id="DKSVqOXuUb8XlKfZnycg-15" value="test_driver=1" style="edgeLabel;html=1;align=center;verticalAlign=middle;resizable=0;points=[];" vertex="1" connectable="0" parent="DKSVqOXuUb8XlKfZnycg-8">
          <mxGeometry x="-0.7633" y="1" relative="1" as="geometry">
            <mxPoint as="offset" />
          </mxGeometry>
        </mxCell>
        <mxCell id="DKSVqOXuUb8XlKfZnycg-7" value="抢单接口(&lt;span style=&quot;background-color: rgb(255 , 255 , 255) ; color: rgb(51 , 51 , 51) ; font-family: &amp;#34;helvetica neue&amp;#34; , &amp;#34;helvetica&amp;#34; , &amp;#34;arial&amp;#34; , sans-serif ; font-size: 15px&quot;&gt;/tripcloud/v1/hermes/striveCallback)&lt;/span&gt;" style="rounded=0;whiteSpace=wrap;html=1;" vertex="1" parent="1">
          <mxGeometry x="160" y="450" width="340" height="40" as="geometry" />
        </mxCell>
        <mxCell id="DKSVqOXuUb8XlKfZnycg-16" value="精准派" style="text;html=1;strokeColor=none;fillColor=none;align=center;verticalAlign=middle;whiteSpace=wrap;rounded=0;dashed=1;opacity=60;" vertex="1" parent="1">
          <mxGeometry x="160" y="290" width="40" height="20" as="geometry" />
        </mxCell>
        <mxCell id="DKSVqOXuUb8XlKfZnycg-17" value="抢单模式" style="text;html=1;strokeColor=none;fillColor=none;align=center;verticalAlign=middle;whiteSpace=wrap;rounded=0;dashed=1;opacity=60;" vertex="1" parent="1">
          <mxGeometry x="160" y="490" width="70" height="20" as="geometry" />
        </mxCell>
        <mxCell id="DKSVqOXuUb8XlKfZnycg-19" value="quaoar" style="text;html=1;strokeColor=none;fillColor=none;align=center;verticalAlign=middle;whiteSpace=wrap;rounded=0;dashed=1;opacity=60;" vertex="1" parent="1">
          <mxGeometry x="-30" y="585" width="40" height="20" as="geometry" />
        </mxCell>
        <mxCell id="DKSVqOXuUb8XlKfZnycg-21" style="edgeStyle=orthogonalEdgeStyle;rounded=0;orthogonalLoop=1;jettySize=auto;html=1;entryX=0;entryY=0.5;entryDx=0;entryDy=0;" edge="1" parent="1" source="DKSVqOXuUb8XlKfZnycg-20" target="DKSVqOXuUb8XlKfZnycg-18">
          <mxGeometry relative="1" as="geometry" />
        </mxCell>
        <mxCell id="DKSVqOXuUb8XlKfZnycg-20" value="apollo配置&lt;br&gt;白名单司机编号数组" style="rounded=0;whiteSpace=wrap;html=1;dashed=1;opacity=60;" vertex="1" parent="1">
          <mxGeometry x="-200" y="340" width="120" height="60" as="geometry" />
        </mxCell>
        <mxCell id="DKSVqOXuUb8XlKfZnycg-22" value="匹配白名单列表&lt;br&gt;set&amp;nbsp; test_driver值" style="rounded=1;whiteSpace=wrap;html=1;dashed=1;opacity=60;" vertex="1" parent="1">
          <mxGeometry x="40" y="250" width="100" height="240" as="geometry" />
        </mxCell>
      </root>
    </mxGraphModel>
  </diagram>
</mxfile>
